<?xml version="1.0" encoding="utf-8"?>
<!-- Generator: Adobe Illustrator 24.0.1, SVG Export Plug-In . SVG Version: 6.00 Build 0)  -->
<svg version="1.1" id="Layer_1" xmlns="http://www.w3.org/2000/svg" xmlns:xlink="http://www.w3.org/1999/xlink" x="0px" y="0px"
	 viewBox="0 0 20 20" style="enable-background:new 0 0 20 20;" xml:space="preserve">
<style type="text/css">
	.st0{fill:#FFFFFF;}
	.st1{clip-path:url(#SVGID_2_);}
	.st2{fill:#F85606;}
</style>
<rect x="-1490" y="-1490" class="st0" width="3000" height="3000"/>
<g>
	<g>
		<defs>
			<rect id="SVGID_1_" x="2.3" y="-0.4" width="15" height="19.7"/>
		</defs>
		<clipPath id="SVGID_2_">
			<use xlink:href="#SVGID_1_"  style="overflow:visible;"/>
		</clipPath>
		<g class="st1">
			<path class="st2" d="M12.8,4.8l-3-1.7C9.6,3,9.5,3,9.5,3.3V7l3,1.7c0.2,0.1,0.2,0.3,0,0.4l-2.7,1.5c-0.2,0.1-0.3,0-0.3-0.2V7
				L6.1,8.9C6,9,6,9,6,9.2v3.7C6,13,6,13.1,6.1,13.2L9.3,15c0.1,0.1,0.2,0.1,0.4,0l3.1-1.8c0.1-0.1,0.2-0.2,0.2-0.3V5.1
				C13,5,12.9,4.9,12.8,4.8z"/>
		</g>
	</g>
</g>
</svg>
